<svg id="account" viewBox="0 0 49 56" fill="none" xmlns="http://www.w3.org/2000/svg">
    <g filter="url(#filter0_i_45_1043)">
    <path d="M37.476 27.7987C34.2737 30.624 30.0223 32.3579 25.3371 32.3579C20.5822 32.3579 16.2608 30.5676 13.0442 27.6588C5.56236 29.6167 0.933105 36.3016 0.933105 44.2873V48.357C0.933105 57.881 49.0001 57.881 49.0001 48.357V44.2873C48.9998 36.5118 44.6087 29.9387 37.476 27.7987ZM25.3371 29.4631C33.6303 29.4631 40.3712 22.9878 40.3712 14.9884C40.3712 6.989 33.6442 0.5 25.3371 0.5C17.0578 0.5 10.3172 6.98918 10.3172 14.9885C10.3172 22.9882 17.0578 29.4632 25.3371 29.4632V29.4631Z" fill="url(#paint0_radial_45_1043)"/>
    <path d="M37.476 27.7987C34.2737 30.624 30.0223 32.3579 25.3371 32.3579C20.5822 32.3579 16.2608 30.5676 13.0442 27.6588C5.56236 29.6167 0.933105 36.3016 0.933105 44.2873V48.357C0.933105 57.881 49.0001 57.881 49.0001 48.357V44.2873C48.9998 36.5118 44.6087 29.9387 37.476 27.7987ZM25.3371 29.4631C33.6303 29.4631 40.3712 22.9878 40.3712 14.9884C40.3712 6.989 33.6442 0.5 25.3371 0.5C17.0578 0.5 10.3172 6.98918 10.3172 14.9885C10.3172 22.9882 17.0578 29.4632 25.3371 29.4632V29.4631Z" fill="url(#paint1_radial_45_1043)"/>
    </g>
    <defs>
    <filter id="filter0_i_45_1043" x="0.933105" y="0.5" width="48.0669" height="59" filterUnits="userSpaceOnUse" color-interpolation-filters="sRGB">
    <feFlood flood-opacity="0" result="BackgroundImageFix"/>
    <feBlend mode="normal" in="SourceGraphic" in2="BackgroundImageFix" result="shape"/>
    <feColorMatrix in="SourceAlpha" type="matrix" values="0 0 0 0 0 0 0 0 0 0 0 0 0 0 0 0 0 0 127 0" result="hardAlpha"/>
    <feOffset dy="4"/>
    <feGaussianBlur stdDeviation="2"/>
    <feComposite in2="hardAlpha" operator="arithmetic" k2="-1" k3="1"/>
    <feColorMatrix type="matrix" values="0 0 0 0 0 0 0 0 0 0 0 0 0 0 0 0 0 0 0.25 0"/>
    <feBlend mode="normal" in2="shape" result="effect1_innerShadow_45_1043"/>
    </filter>
    <radialGradient id="paint0_radial_45_1043" cx="0" cy="0" r="1" gradientUnits="userSpaceOnUse" gradientTransform="translate(25 -2.6033e-06) rotate(90.0345) scale(55.5 45.7928)">
    <stop stop-color="#48F5FF"/>
    <stop offset="0.33" stop-color="#00D3DF"/>
    <stop offset="0.665" stop-color="#00D3DF"/>
    <stop offset="1" stop-color="#0012DF"/>
    </radialGradient>
    <radialGradient id="paint1_radial_45_1043" cx="0" cy="0" r="1" gradientUnits="userSpaceOnUse" gradientTransform="translate(25) rotate(90) scale(17 14.8571)">
    <stop stop-color="white" stop-opacity="0.75"/>
    <stop offset="1" stop-color="white" stop-opacity="0"/>
    </radialGradient>
    </defs>
</svg>