<svg id="floppy_theme_default" viewBox="0 0 882 882" fill="none" xmlns="http://www.w3.org/2000/svg">
<path opacity="0.506" d="M826.875 753.946C826.875 783.383 786.221 811.615 713.855 832.43C641.49 853.245 543.341 864.938 441.001 864.938C338.661 864.938 240.513 853.245 168.147 832.43C95.7819 811.615 55.1274 783.383 55.1274 753.946C55.1274 724.509 95.7819 696.278 168.147 675.463C240.513 654.648 338.661 642.954 441.001 642.954C543.341 642.954 641.49 654.648 713.855 675.463C786.221 696.278 826.875 724.509 826.875 753.946Z" fill="url(#paint0_radial_302_238)"/>
<g filter="url(#filter0_i_302_238)">
<path d="M83.7532 65.562H798.357C809.198 65.562 817.908 74.2717 817.908 85.0946V779.026C817.908 789.868 809.18 798.577 798.357 798.577H120.503L64.2022 742.276V85.0946C64.1949 82.526 64.6958 79.9812 65.676 77.6069C66.6562 75.2326 68.0963 73.0757 69.9135 71.2602C71.7306 69.4447 73.889 68.0066 76.2642 67.0287C78.6394 66.0508 81.1846 65.5523 83.7532 65.562Z" fill="url(#paint1_linear_302_238)" fill-opacity="0.5"/>
</g>
<path d="M651.835 798.512V555.943C651.835 538.799 638.697 525 622.38 525H259.474H259.455C243.138 525 230 538.799 230 555.943V798.512M381.281 559.82H316.454C308.833 559.82 302.655 565.999 302.655 573.62V730.984C302.655 738.605 308.833 744.783 316.454 744.783H381.281C388.903 744.783 395.081 738.605 395.081 730.984V573.62C395.081 565.999 388.903 559.82 381.281 559.82Z" stroke="url(#paint2_linear_302_238)" stroke-width="10"/>
<path opacity="0.739" d="M144.685 110.25H112.565C111.287 110.25 110.25 111.287 110.25 112.565V144.685C110.25 145.963 111.287 147 112.565 147H144.685C145.963 147 147 145.963 147 144.685V112.565C147 111.287 145.963 110.25 144.685 110.25Z" fill="url(#paint3_linear_302_238)"/>
<g clip-path="url(#clip0_302_238)">
<path d="M280.583 172.333V259.833M280.583 259.833H368.083M280.583 259.833L348.25 196.25C368.388 176.146 394.515 163.131 422.693 159.166C450.872 155.202 479.575 160.502 504.479 174.269C529.383 188.037 549.138 209.524 560.768 235.495C572.397 261.466 575.272 290.513 568.958 318.259C562.643 346.006 547.483 370.949 525.76 389.33C504.038 407.711 476.93 418.534 448.521 420.169C420.112 421.804 391.941 414.163 368.253 398.395C344.565 382.628 326.643 359.589 317.188 332.75" stroke="url(#paint4_linear_302_238)" stroke-width="38" stroke-linecap="round" stroke-linejoin="round"/>
</g>
<g filter="url(#filter1_i_302_238)">
<path d="M309.288 686.544C308.008 687.952 306.664 689.168 305.256 690.192C303.912 691.216 302.44 692.048 300.84 692.688C299.304 693.392 297.64 693.904 295.848 694.224C294.056 694.608 291.816 694.8 289.128 694.8H279.912C279.08 694.8 278.568 694.672 278.376 694.416C278.248 694.16 278.184 693.552 278.184 692.592V630.672C278.184 629.456 278.248 628.752 278.376 628.56C278.568 628.304 279.112 628.176 280.008 628.176H292.584C301.224 628.176 307.784 631.696 312.264 638.736C314.248 641.808 315.72 644.912 316.68 648.048C317.704 651.12 318.216 655.536 318.216 661.296C318.216 667.248 317.448 672.176 315.912 676.08C314.376 679.984 312.168 683.472 309.288 686.544ZM304.584 645.936C302.216 640.88 298.696 638.352 294.024 638.352H288.84V684.528H292.008C294.056 684.528 295.912 684.08 297.576 683.184C299.24 682.224 300.872 680.72 302.472 678.672C304.136 676.496 305.416 674.192 306.312 671.76C307.208 669.264 307.656 665.648 307.656 660.912C307.656 657.072 307.4 654.16 306.888 652.176C306.44 650.128 305.672 648.048 304.584 645.936ZM364.104 673.008C364.104 673.52 363.976 673.904 363.72 674.16C363.528 674.352 363.24 674.448 362.856 674.448H336.552C336.616 677.84 337.48 680.752 339.144 683.184C340.872 685.552 343.624 686.736 347.4 686.736C349.704 686.736 351.72 686.48 353.448 685.968C355.24 685.392 357.064 684.432 358.92 683.088C359.432 682.832 359.72 682.864 359.784 683.184C359.912 683.504 359.976 683.888 359.976 684.336V691.152C359.976 691.728 359.88 692.144 359.688 692.4C359.496 692.72 359.176 693.04 358.728 693.36C357.064 694.256 355.368 694.96 353.64 695.472C351.976 695.984 349.896 696.24 347.4 696.24C340.104 696.24 334.664 693.904 331.08 689.232C327.496 684.56 325.704 678.384 325.704 670.704C325.704 667.44 326.088 664.272 326.856 661.2C327.624 658.064 328.808 655.248 330.408 652.752C332.072 650.256 334.152 648.208 336.648 646.608C339.144 645.008 342.024 644.208 345.288 644.208C348.744 644.208 351.656 644.944 354.024 646.416C356.456 647.888 358.408 649.84 359.88 652.272C361.416 654.64 362.504 657.36 363.144 660.432C363.848 663.504 364.2 666.832 364.2 670.416C364.2 670.864 364.168 671.376 364.104 671.952C364.104 672.464 364.104 672.816 364.104 673.008ZM345.096 653.424C343.56 653.424 342.184 653.872 340.968 654.768C339.816 655.6 338.888 656.752 338.184 658.224C337.544 659.632 337.096 660.944 336.84 662.16C336.648 663.312 336.552 664.24 336.552 664.944H353.736C353.736 664.24 353.608 663.312 353.352 662.16C353.16 660.944 352.712 659.632 352.008 658.224C351.368 656.752 350.44 655.6 349.224 654.768C348.008 653.872 346.632 653.424 345.096 653.424ZM409.992 632.304C409.096 631.856 407.976 631.472 406.632 631.152C405.288 630.768 403.816 630.576 402.216 630.576C400.488 630.512 399.176 630.896 398.28 631.728C397.448 632.56 396.904 633.584 396.648 634.8C396.52 635.568 396.392 636.464 396.264 637.488C396.2 638.512 396.168 639.696 396.168 641.04V647.664H410.952C411.72 647.664 412.104 648.048 412.104 648.816V656.304C412.104 656.624 411.976 656.912 411.72 657.168C411.528 657.36 411.272 657.456 410.952 657.456H396.168V693.648C396.168 694.416 395.784 694.8 395.016 694.8H387.144C386.376 694.8 385.992 694.416 385.992 693.648V657.456H375.24C374.92 657.456 374.632 657.36 374.376 657.168C374.184 656.912 374.088 656.624 374.088 656.304V648.816C374.088 648.496 374.184 648.24 374.376 648.048C374.632 647.792 374.92 647.664 375.24 647.664H385.896V641.712C385.896 638.64 386.088 635.856 386.472 633.36C386.92 630.864 387.72 628.656 388.872 626.736C389.896 625.136 391.336 623.824 393.192 622.8C395.112 621.712 397.8 621.168 401.256 621.168C402.856 621.168 404.488 621.328 406.152 621.648C407.88 621.968 409.352 622.416 410.568 622.992C411.016 623.248 411.24 623.696 411.24 624.336L410.856 630.864C410.856 631.952 410.568 632.432 409.992 632.304ZM451.272 694.8C450.824 694.8 450.536 694.768 450.408 694.704C450.344 694.64 450.312 694.416 450.312 694.032V689.616C448.776 691.856 446.856 693.52 444.552 694.608C442.248 695.76 439.912 696.336 437.544 696.336C435.688 696.336 433.704 695.984 431.592 695.28C429.544 694.64 427.784 693.648 426.312 692.304C424.84 691.024 423.656 689.424 422.76 687.504C421.928 685.584 421.512 683.344 421.512 680.784C421.512 678.032 422.056 675.536 423.144 673.296C424.296 670.992 426.024 669.072 428.328 667.536C430.632 666 433.416 664.88 436.68 664.176C440.008 663.408 444.232 663.024 449.352 663.024C449.352 661.872 449.224 660.816 448.968 659.856C448.776 658.832 448.392 657.872 447.816 656.976C447.24 656.08 446.408 655.344 445.32 654.768C444.296 654.128 443.016 653.808 441.48 653.808C439.432 653.808 437.288 654.192 435.048 654.96C432.872 655.728 430.824 656.752 428.904 658.032C427.944 658.672 427.272 658.96 426.888 658.896C426.568 658.832 426.408 658.48 426.408 657.84V650.352C426.408 650.224 426.376 650 426.312 649.68C426.312 649.296 426.44 649.008 426.696 648.816C427.016 648.496 427.432 648.208 427.944 647.952C429.864 646.864 431.976 645.968 434.28 645.264C436.584 644.56 438.92 644.208 441.288 644.208C447.432 644.208 452.008 645.776 455.016 648.912C458.088 651.984 459.624 656.432 459.624 662.256V683.376C459.624 685.104 459.624 686.864 459.624 688.656C459.688 690.448 459.816 692.048 460.008 693.456C460.072 694.352 459.72 694.8 458.952 694.8H451.272ZM431.784 680.112C431.784 682.352 432.456 684.048 433.8 685.2C435.144 686.288 436.584 686.832 438.12 686.832C441.512 686.832 444.296 685.52 446.472 682.896C448.648 680.208 449.736 676.976 449.736 673.2V672.144C442.888 672.144 438.184 672.848 435.624 674.256C433.064 675.6 431.784 677.552 431.784 680.112ZM498.984 694.8C498.728 694.8 498.472 694.704 498.216 694.512C498.024 694.384 497.928 694.16 497.928 693.84V689.904C496.712 692.016 495.144 693.616 493.224 694.704C491.368 695.792 489.192 696.336 486.696 696.336C481.896 696.336 477.928 694.512 474.792 690.864C471.72 687.216 470.184 682 470.184 675.216V646.8C470.184 646.48 470.28 646.192 470.472 645.936C470.728 645.616 470.984 645.456 471.24 645.456H479.4C479.656 645.456 479.88 645.616 480.072 645.936C480.328 646.256 480.456 646.576 480.456 646.896V673.68C480.456 678.48 481.128 681.872 482.472 683.856C483.816 685.84 485.608 686.832 487.848 686.832C490.6 686.832 492.872 685.52 494.664 682.896C496.456 680.272 497.352 676.368 497.352 671.184V646.8C497.352 646.48 497.448 646.192 497.64 645.936C497.896 645.616 498.216 645.456 498.6 645.456H506.568C506.824 645.456 507.048 645.648 507.24 646.032C507.496 646.352 507.624 646.672 507.624 646.992V682.416C507.624 684.4 507.656 686.352 507.72 688.272C507.784 690.192 507.816 691.952 507.816 693.552C507.816 694.384 507.464 694.8 506.76 694.8H498.984ZM519.72 694.8C519.4 694.8 519.112 694.672 518.856 694.416C518.664 694.224 518.568 693.936 518.568 693.552V686.064C518.568 685.744 518.664 685.488 518.856 685.296C519.112 685.04 519.4 684.912 519.72 684.912H532.776V632.592H522.792C522.472 632.592 522.184 632.496 521.928 632.304C521.736 632.048 521.64 631.728 521.64 631.344V623.856C521.64 623.536 521.736 623.28 521.928 623.088C522.184 622.832 522.472 622.704 522.792 622.704H541.992C542.312 622.704 542.568 622.832 542.76 623.088C543.016 623.28 543.144 623.536 543.144 623.856V684.912H554.952C555.272 684.912 555.528 685.04 555.72 685.296C555.976 685.488 556.104 685.744 556.104 686.064V693.552C556.104 694.384 555.72 694.8 554.952 694.8H519.72ZM603.816 693.744C601.448 694.576 599.048 695.184 596.616 695.568C594.248 695.952 592.232 696.112 590.568 696.048C587.24 696.048 584.584 695.472 582.6 694.32C580.616 693.232 579.24 691.952 578.472 690.48C577.576 688.816 577.032 686.864 576.84 684.624C576.648 682.384 576.552 679.344 576.552 675.504V657.36H565.992C565.672 657.36 565.384 657.264 565.128 657.072C564.936 656.816 564.84 656.528 564.84 656.208V648.624C564.84 648.304 564.936 648.048 565.128 647.856C565.384 647.6 565.672 647.472 565.992 647.472H576.552V633.552C576.552 633.232 576.68 632.976 576.936 632.784C577.192 632.528 577.48 632.4 577.8 632.4H585.576C585.96 632.4 586.248 632.528 586.44 632.784C586.696 632.976 586.824 633.232 586.824 633.552V647.472H602.952C603.272 647.472 603.528 647.6 603.72 647.856C603.976 648.048 604.104 648.304 604.104 648.624V656.208C604.104 656.528 603.976 656.816 603.72 657.072C603.528 657.264 603.272 657.36 602.952 657.36H586.824V676.08C586.824 680.24 586.92 682.896 587.112 684.048C587.24 685.264 587.816 686 588.84 686.256C589.928 686.512 591.368 686.64 593.16 686.64C594.632 686.64 596.168 686.48 597.768 686.16C599.368 685.84 600.936 685.424 602.472 684.912C602.792 684.784 603.016 684.784 603.144 684.912C603.272 684.976 603.4 685.264 603.528 685.776L604.296 692.592C604.36 693.04 604.2 693.424 603.816 693.744Z" fill="url(#paint5_linear_302_238)"/>
</g>
<defs>
<filter id="filter0_i_302_238" x="64.2021" y="65.5619" width="753.706" height="733.016" filterUnits="userSpaceOnUse" color-interpolation-filters="sRGB">
<feFlood flood-opacity="0" result="BackgroundImageFix"/>
<feBlend mode="normal" in="SourceGraphic" in2="BackgroundImageFix" result="shape"/>
<feColorMatrix in="SourceAlpha" type="matrix" values="0 0 0 0 0 0 0 0 0 0 0 0 0 0 0 0 0 0 127 0" result="hardAlpha"/>
<feOffset/>
<feGaussianBlur stdDeviation="13.6"/>
<feComposite in2="hardAlpha" operator="arithmetic" k2="-1" k3="1"/>
<feColorMatrix type="matrix" values="0 0 0 0 1 0 0 0 0 1 0 0 0 0 1 0 0 0 0.7 0"/>
<feBlend mode="normal" in2="shape" result="effect1_innerShadow_302_238"/>
</filter>
<filter id="filter1_i_302_238" x="278.184" y="621.168" width="326.208" height="79.168" filterUnits="userSpaceOnUse" color-interpolation-filters="sRGB">
<feFlood flood-opacity="0" result="BackgroundImageFix"/>
<feBlend mode="normal" in="SourceGraphic" in2="BackgroundImageFix" result="shape"/>
<feColorMatrix in="SourceAlpha" type="matrix" values="0 0 0 0 0 0 0 0 0 0 0 0 0 0 0 0 0 0 127 0" result="hardAlpha"/>
<feOffset dy="4"/>
<feGaussianBlur stdDeviation="2"/>
<feComposite in2="hardAlpha" operator="arithmetic" k2="-1" k3="1"/>
<feColorMatrix type="matrix" values="0 0 0 0 0 0 0 0 0 0 0 0 0 0 0 0 0 0 0.25 0"/>
<feBlend mode="normal" in2="shape" result="effect1_innerShadow_302_238"/>
</filter>
<radialGradient id="paint0_radial_302_238" cx="0" cy="0" r="1" gradientUnits="userSpaceOnUse" gradientTransform="translate(441.001 753.952) scale(385.874 110.998)">
<stop/>
<stop offset="1" stop-opacity="0"/>
</radialGradient>
<linearGradient id="paint1_linear_302_238" x1="744.053" y1="1445.09" x2="177.681" y2="-15.6778" gradientUnits="userSpaceOnUse">
<stop offset="0.00508433" stop-color="#AEAEAE"/>
<stop offset="1" stop-color="#F5F5F5"/>
</linearGradient>
<linearGradient id="paint2_linear_302_238" x1="335.198" y1="462.888" x2="464.842" y2="952.774" gradientUnits="userSpaceOnUse">
<stop stop-color="white" stop-opacity="0.7"/>
<stop offset="1" stop-color="white" stop-opacity="0"/>
</linearGradient>
<linearGradient id="paint3_linear_302_238" x1="119.415" y1="101.904" x2="144.057" y2="162.279" gradientUnits="userSpaceOnUse">
<stop stop-color="white" stop-opacity="0.7"/>
<stop offset="1" stop-color="white" stop-opacity="0"/>
</linearGradient>
<linearGradient id="paint4_linear_302_238" x1="426.406" y1="157.886" x2="426.406" y2="420.386" gradientUnits="userSpaceOnUse">
<stop stop-color="#505050"/>
<stop offset="1" stop-color="#737373"/>
</linearGradient>
<linearGradient id="paint5_linear_302_238" x1="441" y1="525" x2="441" y2="798" gradientUnits="userSpaceOnUse">
<stop stop-color="#505050"/>
<stop offset="1" stop-color="#737373"/>
</linearGradient>
<clipPath id="clip0_302_238">
<rect width="350" height="350" fill="white" transform="translate(266 114)"/>
</clipPath>
</defs>
</svg>
