<svg id="floppy" viewBox="0 0 882 882" fill="none" xmlns="http://www.w3.org/2000/svg">
  <path 
    opacity="0.739" 
    d="M144.685 110.25H112.565C111.287 110.25 110.25 111.287 110.25 112.565V144.685C110.25 145.963 111.287 147 112.565 147H144.685C145.963 147 147 145.963 147 144.685V112.565C147 111.287 145.963 110.25 144.685 110.25Z" 
    fill="url(#paint2_linear_202_248)"
  />
  
  <path 
    d="M259.345 524.827H622.251C638.568 524.827 651.706 538.626 651.706 555.77V798.339H229.871V555.77C229.871 538.626 243.009 524.827 259.326 524.827H259.345Z
       M381.152 559.647H316.325C308.704 559.647 302.526 565.826 302.526 573.447V730.811C302.526 738.432 308.704 744.61 316.325 744.61H381.152C388.774 744.61 394.952 738.432 394.952 730.811V573.447C394.952 565.826 388.774 559.647 381.152 559.647Z"
    fill="url(#paint3_linear_202_248)" 
    fill-rule="evenodd"
  />

  <rect 
    width="552" 
    height="413" 
    transform="translate(165 83)" 
    fill="url(#paint4_linear_202_248)"
  />
  <defs>
    <filter 
      id="filter0_i_202_248" 
      x="64.2021" 
      y="65.5619" 
      width="753.706" 
      height="733.016" 
      filterUnits="userSpaceOnUse" 
      color-interpolation-filters="sRGB">
      <feFlood flood-opacity="0" result="BackgroundImageFix"/>
      <feBlend mode="normal" in="SourceGraphic" in2="BackgroundImageFix" result="shape"/>
      <feColorMatrix in="SourceAlpha" type="matrix" values="0 0 0 0 0 0 0 0 0 0 0 0 0 0 0 0 0 0 127 0" result="hardAlpha"/>
      <feOffset/>
      <feGaussianBlur stdDeviation="13.6"/>
      <feComposite in2="hardAlpha" operator="arithmetic" k2="-1" k3="1"/>
      <feColorMatrix type="matrix" values="0 0 0 0 1 0 0 0 0 1 0 0 0 0 1 0 0 0 0.7 0"/>
      <feBlend mode="normal" in2="shape" result="effect1_innerShadow_202_248"/>
    </filter>
    <radialGradient 
      id="paint0_radial_202_248" 
      cx="0" 
      cy="0" 
      r="1" 
      gradientUnits="userSpaceOnUse" 
      gradientTransform="translate(441.001 753.952) scale(385.874 110.998)">
      <stop stop-opacity="1"/>
      <stop offset="1" stop-opacity="0"/>
    </radialGradient>

    <linearGradient 
        id="back" 
        x1="744.053" 
        y1="1445.09" 
        x2="177.681" 
        y2="-15.6778" 
        gradientUnits="userSpaceOnUse">
        <stop stop-color="#1E2D69"/>
        <stop offset="1" stop-color="#78A7E0"/>
    </linearGradient>
    <linearGradient 
        id="back0" 
        x1="744.053" 
        y1="1445.09" 
        x2="177.681" 
        y2="-15.6778" 
        gradientUnits="userSpaceOnUse">
        <stop stop-color="#1E2D69"/>
        <stop offset="1" stop-color="#78A7E0"/>
    </linearGradient>
    <linearGradient 
        id="back1" 
        x1="744.053" 
        y1="1445.09" 
        x2="177.681" 
        y2="-15.6778" 
        gradientUnits="userSpaceOnUse">
        <stop stop-color="#69311E"/>
        <stop offset="1" stop-color="#E07878"/>
    </linearGradient>
    <linearGradient 
        id="back2" 
        x1="744.053" 
        y1="1445.09" 
        x2="177.681" 
        y2="-15.6778" 
        gradientUnits="userSpaceOnUse">
        <stop stop-color="#1E6924"/>
        <stop offset="1" stop-color="#89E078"/>
    </linearGradient>
    <linearGradient 
        id="back3" 
        x1="744.053" 
        y1="1445.09" 
        x2="177.681" 
        y2="-15.6778" 
        gradientUnits="userSpaceOnUse">
        <stop stop-color="#A39381"/>
        <stop offset="1" stop-color="#F7E4D7"/>
    </linearGradient>
    <linearGradient 
        id="back4" 
        x1="744.053" 
        y1="1445.09" 
        x2="177.681" 
        y2="-15.6778" 
        gradientUnits="userSpaceOnUse">
        <stop stop-color="#AEAEAE"/>
        <stop offset="1" stop-color="#F5F5F5"/>
    </linearGradient>
    <linearGradient 
        id="back5" 
        x1="744.053" 
        y1="1445.09" 
        x2="177.681" 
        y2="-15.6778" 
        gradientUnits="userSpaceOnUse">
        <stop stop-color="#000000"/>
        <stop offset="1" stop-color="#505050"/>
    </linearGradient>

    <linearGradient 
      id="paint2_linear_202_248" 
      x1="128.625" 
      y1="110.25" 
      x2="128.625" 
      y2="147" 
      gradientUnits="userSpaceOnUse">
      <stop stop-color="#505050"/>
      <stop offset="1" stop-color="#737373"/>
    </linearGradient>
    <linearGradient 
      id="paint3_linear_202_248" 
      x1="369.677" 
      y1="347.741" 
      x2="549.667" 
      y2="766.576" 
      gradientUnits="userSpaceOnUse">
      <stop stop-color="#858585"/>
      <stop offset="0.5" stop-color="#CBCBCB"/>
      <stop offset="1" stop-color="#6B6B6B"/>
    </linearGradient>
    <linearGradient 
      id="paint4_linear_202_248" 
      x1="137.659" 
      y1="-93.7884" 
      x2="358.755" 
      y2="630.224" 
      gradientUnits="userSpaceOnUse">
      <stop stop-color="white"/>
      <stop offset="1" stop-color="#F2F2F2"/>
    </linearGradient>
  </defs>
</svg>
