<svg id="floppy_theme_new" viewBox="0 0 882 882" fill="none" xmlns="http://www.w3.org/2000/svg">
<path opacity="0.506" d="M826.875 753.946C826.875 783.383 786.221 811.615 713.855 832.43C641.49 853.245 543.341 864.938 441.001 864.938C338.661 864.938 240.513 853.245 168.147 832.43C95.7819 811.615 55.1274 783.383 55.1274 753.946C55.1274 724.509 95.7819 696.278 168.147 675.463C240.513 654.648 338.661 642.954 441.001 642.954C543.341 642.954 641.49 654.648 713.855 675.463C786.221 696.278 826.875 724.509 826.875 753.946Z" fill="url(#paint0_radial_297_238)"/>
<g filter="url(#filter0_i_297_238)">
<path d="M83.7532 65.562H798.357C809.198 65.562 817.908 74.2717 817.908 85.0946V779.026C817.908 789.868 809.18 798.577 798.357 798.577H120.503L64.2022 742.276V85.0946C64.1949 82.526 64.6958 79.9812 65.676 77.6069C66.6562 75.2326 68.0963 73.0757 69.9135 71.2602C71.7306 69.4447 73.889 68.0066 76.2642 67.0287C78.6394 66.0508 81.1846 65.5523 83.7532 65.562Z" fill="url(#paint1_linear_297_238)" fill-opacity="0.5"/>
</g>
<path d="M651.835 798.512V555.943C651.835 538.799 638.697 525 622.38 525H259.474H259.455C243.138 525 230 538.799 230 555.943V798.512M381.281 559.82H316.454C308.833 559.82 302.655 565.999 302.655 573.62V730.984C302.655 738.605 308.833 744.783 316.454 744.783H381.281C388.903 744.783 395.081 738.605 395.081 730.984V573.62C395.081 565.999 388.903 559.82 381.281 559.82Z" stroke="url(#paint2_linear_297_238)" stroke-width="10"/>
<path opacity="0.739" d="M144.685 110.25H112.565C111.287 110.25 110.25 111.287 110.25 112.565V144.685C110.25 145.963 111.287 147 112.565 147H144.685C145.963 147 147 145.963 147 144.685V112.565C147 111.287 145.963 110.25 144.685 110.25Z" fill="url(#paint3_linear_297_238)"/>
<g filter="url(#filter1_i_297_238)">
<path d="M421 129C421 120.716 427.716 114 436 114H446C454.284 114 461 120.716 461 129V449C461 457.284 454.284 464 446 464H436C427.716 464 421 457.284 421 449V129Z" fill="url(#paint4_linear_297_238)"/>
<path d="M266 284C266 275.716 272.716 269 281 269H601C609.284 269 616 275.716 616 284V294C616 302.284 609.284 309 601 309H281C272.716 309 266 302.284 266 294V284Z" fill="url(#paint5_linear_297_238)"/>
</g>
<g filter="url(#filter2_i_297_238)">
<path d="M257.448 694.8C256.936 694.8 256.552 694.704 256.296 694.512C256.04 694.32 255.72 693.904 255.336 693.264L242.088 652.56L240.168 645.072V652.08V693.264C240.168 693.904 240.072 694.32 239.88 694.512C239.688 694.704 239.272 694.8 238.632 694.8H232.104C231.592 694.8 231.208 694.704 230.952 694.512C230.696 694.32 230.568 672.816 230.568 630C230.568 629.232 230.696 628.752 230.952 628.56C231.208 628.304 231.688 628.176 232.392 628.176H240.744C241.256 628.176 241.64 628.272 241.896 628.464C242.152 628.592 242.472 629.008 242.856 629.712L256.104 670.416L258.024 677.904V670.896V629.712C258.024 629.072 258.12 628.656 258.312 628.464C258.504 628.272 258.92 628.176 259.56 628.176H266.088C266.728 628.176 267.112 628.272 267.24 628.464C267.432 628.656 267.528 629.072 267.528 629.712V692.976C267.528 693.744 267.4 694.224 267.144 694.416C266.952 694.672 266.504 694.8 265.8 694.8H257.448ZM316.104 673.008C316.104 673.52 315.976 673.904 315.72 674.16C315.528 674.352 315.24 674.448 314.856 674.448H288.552C288.616 677.84 289.48 680.752 291.144 683.184C292.872 685.552 295.624 686.736 299.4 686.736C301.704 686.736 303.72 686.48 305.448 685.968C307.24 685.392 309.064 684.432 310.92 683.088C311.432 682.832 311.72 682.864 311.784 683.184C311.912 683.504 311.976 683.888 311.976 684.336V691.152C311.976 691.728 311.88 692.144 311.688 692.4C311.496 692.72 311.176 693.04 310.728 693.36C309.064 694.256 307.368 694.96 305.64 695.472C303.976 695.984 301.896 696.24 299.4 696.24C292.104 696.24 286.664 693.904 283.08 689.232C279.496 684.56 277.704 678.384 277.704 670.704C277.704 667.44 278.088 664.272 278.856 661.2C279.624 658.064 280.808 655.248 282.408 652.752C284.072 650.256 286.152 648.208 288.648 646.608C291.144 645.008 294.024 644.208 297.288 644.208C300.744 644.208 303.656 644.944 306.024 646.416C308.456 647.888 310.408 649.84 311.88 652.272C313.416 654.64 314.504 657.36 315.144 660.432C315.848 663.504 316.2 666.832 316.2 670.416C316.2 670.864 316.168 671.376 316.104 671.952C316.104 672.464 316.104 672.816 316.104 673.008ZM297.096 653.424C295.56 653.424 294.184 653.872 292.968 654.768C291.816 655.6 290.888 656.752 290.184 658.224C289.544 659.632 289.096 660.944 288.84 662.16C288.648 663.312 288.552 664.24 288.552 664.944H305.736C305.736 664.24 305.608 663.312 305.352 662.16C305.16 660.944 304.712 659.632 304.008 658.224C303.368 656.752 302.44 655.6 301.224 654.768C300.008 653.872 298.632 653.424 297.096 653.424ZM350.856 694.8C350.152 694.8 349.64 694.64 349.32 694.32C349.064 694 348.904 693.68 348.84 693.36L345.48 669.36L345 664.08L344.616 669.36L341.256 693.36C341 694 340.744 694.384 340.488 694.512C340.232 694.704 339.752 694.8 339.048 694.8H332.328C331.816 694.8 331.4 694.64 331.08 694.32C330.76 694 330.536 693.68 330.408 693.36L323.208 646.512C323.144 646.192 323.176 645.936 323.304 645.744C323.432 645.552 324.04 645.456 325.128 645.456H330.312C331.208 645.456 331.752 645.552 331.944 645.744C332.2 645.936 332.36 646.192 332.424 646.512L335.4 672.144L335.976 680.016L336.648 672.144L339.816 650.352C339.88 650.032 340.04 649.776 340.296 649.584C340.616 649.392 341.128 649.296 341.832 649.296H348.264C349.416 649.296 350.056 649.648 350.184 650.352L353.352 672.144L354.12 680.016L354.696 672.144L357.576 646.512C357.64 646.256 357.8 646.032 358.056 645.84C358.312 645.584 358.76 645.456 359.4 645.456H364.872C365.832 645.456 366.408 645.552 366.6 645.744C366.792 645.936 366.856 646.192 366.792 646.512L359.688 693.36C359.432 693.936 359.208 694.32 359.016 694.512C358.824 694.704 358.376 694.8 357.672 694.8H350.856ZM446.376 638.256V693.648C446.376 694.416 445.992 694.8 445.224 694.8H436.68C435.912 694.8 435.528 694.416 435.528 693.648V638.256H420.456C420.136 638.256 419.848 638.16 419.592 637.968C419.4 637.712 419.304 637.392 419.304 637.008V629.328C419.304 629.008 419.4 628.752 419.592 628.56C419.848 628.304 420.136 628.176 420.456 628.176H461.544C461.864 628.176 462.12 628.304 462.312 628.56C462.568 628.752 462.696 629.008 462.696 629.328V637.008C462.696 637.84 462.312 638.256 461.544 638.256H446.376ZM497.448 694.8C496.68 694.8 496.296 694.416 496.296 693.648V668.112C496.296 663.312 495.752 659.824 494.664 657.648C493.576 655.408 491.816 654.288 489.384 654.288C483.56 654.288 480.328 657.68 479.688 664.464V693.648C479.688 694.416 479.336 694.8 478.632 694.8H470.568C470.312 694.8 470.056 694.672 469.8 694.416C469.608 694.224 469.512 693.968 469.512 693.648V623.76C469.512 623.44 469.608 623.184 469.8 622.992C470.056 622.736 470.312 622.608 470.568 622.608H478.056C478.312 622.608 478.536 622.736 478.728 622.992C478.92 623.184 479.016 623.44 479.016 623.76V649.68C480.424 647.952 482.056 646.672 483.912 645.84C485.832 644.944 487.784 644.496 489.768 644.496C500.968 644.496 506.568 652.336 506.568 668.016V693.648C506.568 693.968 506.44 694.224 506.184 694.416C505.992 694.672 505.768 694.8 505.512 694.8H497.448ZM556.104 673.008C556.104 673.52 555.976 673.904 555.72 674.16C555.528 674.352 555.24 674.448 554.856 674.448H528.552C528.616 677.84 529.48 680.752 531.144 683.184C532.872 685.552 535.624 686.736 539.4 686.736C541.704 686.736 543.72 686.48 545.448 685.968C547.24 685.392 549.064 684.432 550.92 683.088C551.432 682.832 551.72 682.864 551.784 683.184C551.912 683.504 551.976 683.888 551.976 684.336V691.152C551.976 691.728 551.88 692.144 551.688 692.4C551.496 692.72 551.176 693.04 550.728 693.36C549.064 694.256 547.368 694.96 545.64 695.472C543.976 695.984 541.896 696.24 539.4 696.24C532.104 696.24 526.664 693.904 523.08 689.232C519.496 684.56 517.704 678.384 517.704 670.704C517.704 667.44 518.088 664.272 518.856 661.2C519.624 658.064 520.808 655.248 522.408 652.752C524.072 650.256 526.152 648.208 528.648 646.608C531.144 645.008 534.024 644.208 537.288 644.208C540.744 644.208 543.656 644.944 546.024 646.416C548.456 647.888 550.408 649.84 551.88 652.272C553.416 654.64 554.504 657.36 555.144 660.432C555.848 663.504 556.2 666.832 556.2 670.416C556.2 670.864 556.168 671.376 556.104 671.952C556.104 672.464 556.104 672.816 556.104 673.008ZM537.096 653.424C535.56 653.424 534.184 653.872 532.968 654.768C531.816 655.6 530.888 656.752 530.184 658.224C529.544 659.632 529.096 660.944 528.84 662.16C528.648 663.312 528.552 664.24 528.552 664.944H545.736C545.736 664.24 545.608 663.312 545.352 662.16C545.16 660.944 544.712 659.632 544.008 658.224C543.368 656.752 542.44 655.6 541.224 654.768C540.008 653.872 538.632 653.424 537.096 653.424ZM597.576 694.8C597.384 694.8 597.224 694.64 597.096 694.32C596.968 694.064 596.904 693.776 596.904 693.456V663.984C596.904 660.784 596.68 658.32 596.232 656.592C595.784 654.8 595.048 653.904 594.024 653.904C593.384 653.904 592.808 654.256 592.296 654.96C591.784 655.664 591.368 656.816 591.048 658.416C590.792 660.016 590.664 661.712 590.664 663.504C590.664 665.232 590.664 667.216 590.664 669.456V692.592C590.664 693.424 590.472 693.84 590.088 693.84H582.408C582.216 693.84 582.056 693.68 581.928 693.36C581.8 693.104 581.736 692.816 581.736 692.496V663.984C581.672 657.264 580.648 653.904 578.664 653.904C577.512 653.904 576.68 654.992 576.168 657.168C575.72 659.344 575.496 662.32 575.496 666.096V693.552C575.496 694.384 575.272 694.8 574.824 694.8H566.856C566.728 694.8 566.6 694.64 566.472 694.32C566.344 694.064 566.28 693.776 566.28 693.456V658.992C566.28 656.56 566.248 654.224 566.184 651.984C566.184 649.744 566.152 647.984 566.088 646.704C566.024 645.872 566.28 645.456 566.856 645.456H573.96C574.344 645.456 574.536 645.712 574.536 646.224L574.44 650.064C574.824 648.272 575.56 646.864 576.648 645.84C577.736 644.816 578.888 644.304 580.104 644.304C581.832 644.304 583.368 645.072 584.712 646.608C586.12 648.144 586.984 650.416 587.304 653.424C588.136 650.352 589.288 648.08 590.76 646.608C592.232 645.072 593.928 644.304 595.848 644.304C598.792 644.304 601.224 645.936 603.144 649.2C605.128 652.4 606.12 656.912 606.12 662.736V693.552C606.12 693.872 606.056 694.16 605.928 694.416C605.8 694.672 605.64 694.8 605.448 694.8H597.576ZM652.104 673.008C652.104 673.52 651.976 673.904 651.72 674.16C651.528 674.352 651.24 674.448 650.856 674.448H624.552C624.616 677.84 625.48 680.752 627.144 683.184C628.872 685.552 631.624 686.736 635.4 686.736C637.704 686.736 639.72 686.48 641.448 685.968C643.24 685.392 645.064 684.432 646.92 683.088C647.432 682.832 647.72 682.864 647.784 683.184C647.912 683.504 647.976 683.888 647.976 684.336V691.152C647.976 691.728 647.88 692.144 647.688 692.4C647.496 692.72 647.176 693.04 646.728 693.36C645.064 694.256 643.368 694.96 641.64 695.472C639.976 695.984 637.896 696.24 635.4 696.24C628.104 696.24 622.664 693.904 619.08 689.232C615.496 684.56 613.704 678.384 613.704 670.704C613.704 667.44 614.088 664.272 614.856 661.2C615.624 658.064 616.808 655.248 618.408 652.752C620.072 650.256 622.152 648.208 624.648 646.608C627.144 645.008 630.024 644.208 633.288 644.208C636.744 644.208 639.656 644.944 642.024 646.416C644.456 647.888 646.408 649.84 647.88 652.272C649.416 654.64 650.504 657.36 651.144 660.432C651.848 663.504 652.2 666.832 652.2 670.416C652.2 670.864 652.168 671.376 652.104 671.952C652.104 672.464 652.104 672.816 652.104 673.008ZM633.096 653.424C631.56 653.424 630.184 653.872 628.968 654.768C627.816 655.6 626.888 656.752 626.184 658.224C625.544 659.632 625.096 660.944 624.84 662.16C624.648 663.312 624.552 664.24 624.552 664.944H641.736C641.736 664.24 641.608 663.312 641.352 662.16C641.16 660.944 640.712 659.632 640.008 658.224C639.368 656.752 638.44 655.6 637.224 654.768C636.008 653.872 634.632 653.424 633.096 653.424Z" fill="url(#paint6_linear_297_238)"/>
</g>
<defs>
<filter id="filter0_i_297_238" x="64.2021" y="65.5619" width="753.706" height="733.016" filterUnits="userSpaceOnUse" color-interpolation-filters="sRGB">
<feFlood flood-opacity="0" result="BackgroundImageFix"/>
<feBlend mode="normal" in="SourceGraphic" in2="BackgroundImageFix" result="shape"/>
<feColorMatrix in="SourceAlpha" type="matrix" values="0 0 0 0 0 0 0 0 0 0 0 0 0 0 0 0 0 0 127 0" result="hardAlpha"/>
<feOffset/>
<feGaussianBlur stdDeviation="13.6"/>
<feComposite in2="hardAlpha" operator="arithmetic" k2="-1" k3="1"/>
<feColorMatrix type="matrix" values="0 0 0 0 1 0 0 0 0 1 0 0 0 0 1 0 0 0 0.7 0"/>
<feBlend mode="normal" in2="shape" result="effect1_innerShadow_297_238"/>
</filter>
<filter id="filter1_i_297_238" x="266" y="114" width="350" height="354" filterUnits="userSpaceOnUse" color-interpolation-filters="sRGB">
<feFlood flood-opacity="0" result="BackgroundImageFix"/>
<feBlend mode="normal" in="SourceGraphic" in2="BackgroundImageFix" result="shape"/>
<feColorMatrix in="SourceAlpha" type="matrix" values="0 0 0 0 0 0 0 0 0 0 0 0 0 0 0 0 0 0 127 0" result="hardAlpha"/>
<feOffset dy="4"/>
<feGaussianBlur stdDeviation="2"/>
<feComposite in2="hardAlpha" operator="arithmetic" k2="-1" k3="1"/>
<feColorMatrix type="matrix" values="0 0 0 0 0 0 0 0 0 0 0 0 0 0 0 0 0 0 0.25 0"/>
<feBlend mode="normal" in2="shape" result="effect1_innerShadow_297_238"/>
</filter>
<filter id="filter2_i_297_238" x="230.568" y="622.608" width="421.632" height="77.632" filterUnits="userSpaceOnUse" color-interpolation-filters="sRGB">
<feFlood flood-opacity="0" result="BackgroundImageFix"/>
<feBlend mode="normal" in="SourceGraphic" in2="BackgroundImageFix" result="shape"/>
<feColorMatrix in="SourceAlpha" type="matrix" values="0 0 0 0 0 0 0 0 0 0 0 0 0 0 0 0 0 0 127 0" result="hardAlpha"/>
<feOffset dy="4"/>
<feGaussianBlur stdDeviation="2"/>
<feComposite in2="hardAlpha" operator="arithmetic" k2="-1" k3="1"/>
<feColorMatrix type="matrix" values="0 0 0 0 0 0 0 0 0 0 0 0 0 0 0 0 0 0 0.25 0"/>
<feBlend mode="normal" in2="shape" result="effect1_innerShadow_297_238"/>
</filter>
<radialGradient id="paint0_radial_297_238" cx="0" cy="0" r="1" gradientUnits="userSpaceOnUse" gradientTransform="translate(441.001 753.952) scale(385.874 110.998)">
<stop/>
<stop offset="1" stop-opacity="0"/>
</radialGradient>
<linearGradient id="paint1_linear_297_238" x1="744.053" y1="1445.09" x2="177.681" y2="-15.6778" gradientUnits="userSpaceOnUse">
<stop offset="0.00508433" stop-color="#AEAEAE"/>
<stop offset="1" stop-color="#F5F5F5"/>
</linearGradient>
<linearGradient id="paint2_linear_297_238" x1="335.198" y1="462.888" x2="464.842" y2="952.774" gradientUnits="userSpaceOnUse">
<stop stop-color="white" stop-opacity="0.7"/>
<stop offset="1" stop-color="white" stop-opacity="0"/>
</linearGradient>
<linearGradient id="paint3_linear_297_238" x1="119.415" y1="101.904" x2="144.057" y2="162.279" gradientUnits="userSpaceOnUse">
<stop stop-color="white" stop-opacity="0.7"/>
<stop offset="1" stop-color="white" stop-opacity="0"/>
</linearGradient>
<linearGradient id="paint4_linear_297_238" x1="441" y1="114" x2="441" y2="464" gradientUnits="userSpaceOnUse">
<stop stop-color="#505050"/>
<stop offset="1" stop-color="#737373"/>
</linearGradient>
<linearGradient id="paint5_linear_297_238" x1="441" y1="114" x2="441" y2="464" gradientUnits="userSpaceOnUse">
<stop stop-color="#505050"/>
<stop offset="1" stop-color="#737373"/>
</linearGradient>
<linearGradient id="paint6_linear_297_238" x1="441" y1="525" x2="441" y2="798" gradientUnits="userSpaceOnUse">
<stop stop-color="#505050"/>
<stop offset="1" stop-color="#737373"/>
</linearGradient>
</defs>
</svg>
