<svg id="floppy_new" viewBox="0 0 882 882" fill="none" xmlns="http://www.w3.org/2000/svg">
<path opacity="0.506" d="M826.875 753.946C826.875 783.383 786.221 811.615 713.855 832.43C641.49 853.245 543.341 864.938 441.001 864.938C338.661 864.938 240.513 853.245 168.147 832.43C95.7819 811.615 55.1274 783.383 55.1274 753.946C55.1274 724.509 95.7819 696.278 168.147 675.463C240.513 654.648 338.661 642.954 441.001 642.954C543.341 642.954 641.49 654.648 713.855 675.463C786.221 696.278 826.875 724.509 826.875 753.946Z" fill="url(#paint0_radial_212_269)"/>
<g filter="url(#filter0_i_212_269)">
<path d="M83.7532 65.562H798.357C809.198 65.562 817.908 74.2717 817.908 85.0946V779.026C817.908 789.868 809.18 798.577 798.357 798.577H120.503L64.2022 742.276V85.0946C64.1949 82.526 64.6958 79.9812 65.676 77.6069C66.6562 75.2326 68.0963 73.0757 69.9135 71.2602C71.7306 69.4447 73.889 68.0066 76.2642 67.0287C78.6394 66.0508 81.1846 65.5523 83.7532 65.562Z" fill="url(#paint1_linear_212_269)" fill-opacity="0.5"/>
</g>
<path d="M651.835 798.512V555.943C651.835 538.799 638.697 525 622.38 525H259.474H259.455C243.138 525 230 538.799 230 555.943V798.512M381.281 559.82H316.454C308.833 559.82 302.655 565.999 302.655 573.62V730.984C302.655 738.605 308.833 744.783 316.454 744.783H381.281C388.903 744.783 395.081 738.605 395.081 730.984V573.62C395.081 565.999 388.903 559.82 381.281 559.82Z" stroke="url(#paint2_linear_212_269)" stroke-width="10"/>
<path opacity="0.739" d="M144.685 110.25H112.565C111.287 110.25 110.25 111.287 110.25 112.565V144.685C110.25 145.963 111.287 147 112.565 147H144.685C145.963 147 147 145.963 147 144.685V112.565C147 111.287 145.963 110.25 144.685 110.25Z" fill="url(#paint3_linear_212_269)"/>
<g filter="url(#filter1_i_212_269)">
<path d="M421 129C421 120.716 427.716 114 436 114H446C454.284 114 461 120.716 461 129V449C461 457.284 454.284 464 446 464H436C427.716 464 421 457.284 421 449V129Z" fill="url(#paint4_linear_212_269)"/>
<path d="M266 284C266 275.716 272.716 269 281 269H601C609.284 269 616 275.716 616 284V294C616 302.284 609.284 309 601 309H281C272.716 309 266 302.284 266 294V284Z" fill="url(#paint5_linear_212_269)"/>
</g>
<g filter="url(#filter2_i_212_269)">
<path d="M257.448 694.8C256.936 694.8 256.552 694.704 256.296 694.512C256.04 694.32 255.72 693.904 255.336 693.264L242.088 652.56L240.168 645.072V652.08V693.264C240.168 693.904 240.072 694.32 239.88 694.512C239.688 694.704 239.272 694.8 238.632 694.8H232.104C231.592 694.8 231.208 694.704 230.952 694.512C230.696 694.32 230.568 672.816 230.568 630C230.568 629.232 230.696 628.752 230.952 628.56C231.208 628.304 231.688 628.176 232.392 628.176H240.744C241.256 628.176 241.64 628.272 241.896 628.464C242.152 628.592 242.472 629.008 242.856 629.712L256.104 670.416L258.024 677.904V670.896V629.712C258.024 629.072 258.12 628.656 258.312 628.464C258.504 628.272 258.92 628.176 259.56 628.176H266.088C266.728 628.176 267.112 628.272 267.24 628.464C267.432 628.656 267.528 629.072 267.528 629.712V692.976C267.528 693.744 267.4 694.224 267.144 694.416C266.952 694.672 266.504 694.8 265.8 694.8H257.448ZM316.104 673.008C316.104 673.52 315.976 673.904 315.72 674.16C315.528 674.352 315.24 674.448 314.856 674.448H288.552C288.616 677.84 289.48 680.752 291.144 683.184C292.872 685.552 295.624 686.736 299.4 686.736C301.704 686.736 303.72 686.48 305.448 685.968C307.24 685.392 309.064 684.432 310.92 683.088C311.432 682.832 311.72 682.864 311.784 683.184C311.912 683.504 311.976 683.888 311.976 684.336V691.152C311.976 691.728 311.88 692.144 311.688 692.4C311.496 692.72 311.176 693.04 310.728 693.36C309.064 694.256 307.368 694.96 305.64 695.472C303.976 695.984 301.896 696.24 299.4 696.24C292.104 696.24 286.664 693.904 283.08 689.232C279.496 684.56 277.704 678.384 277.704 670.704C277.704 667.44 278.088 664.272 278.856 661.2C279.624 658.064 280.808 655.248 282.408 652.752C284.072 650.256 286.152 648.208 288.648 646.608C291.144 645.008 294.024 644.208 297.288 644.208C300.744 644.208 303.656 644.944 306.024 646.416C308.456 647.888 310.408 649.84 311.88 652.272C313.416 654.64 314.504 657.36 315.144 660.432C315.848 663.504 316.2 666.832 316.2 670.416C316.2 670.864 316.168 671.376 316.104 671.952C316.104 672.464 316.104 672.816 316.104 673.008ZM297.096 653.424C295.56 653.424 294.184 653.872 292.968 654.768C291.816 655.6 290.888 656.752 290.184 658.224C289.544 659.632 289.096 660.944 288.84 662.16C288.648 663.312 288.552 664.24 288.552 664.944H305.736C305.736 664.24 305.608 663.312 305.352 662.16C305.16 660.944 304.712 659.632 304.008 658.224C303.368 656.752 302.44 655.6 301.224 654.768C300.008 653.872 298.632 653.424 297.096 653.424ZM350.856 694.8C350.152 694.8 349.64 694.64 349.32 694.32C349.064 694 348.904 693.68 348.84 693.36L345.48 669.36L345 664.08L344.616 669.36L341.256 693.36C341 694 340.744 694.384 340.488 694.512C340.232 694.704 339.752 694.8 339.048 694.8H332.328C331.816 694.8 331.4 694.64 331.08 694.32C330.76 694 330.536 693.68 330.408 693.36L323.208 646.512C323.144 646.192 323.176 645.936 323.304 645.744C323.432 645.552 324.04 645.456 325.128 645.456H330.312C331.208 645.456 331.752 645.552 331.944 645.744C332.2 645.936 332.36 646.192 332.424 646.512L335.4 672.144L335.976 680.016L336.648 672.144L339.816 650.352C339.88 650.032 340.04 649.776 340.296 649.584C340.616 649.392 341.128 649.296 341.832 649.296H348.264C349.416 649.296 350.056 649.648 350.184 650.352L353.352 672.144L354.12 680.016L354.696 672.144L357.576 646.512C357.64 646.256 357.8 646.032 358.056 645.84C358.312 645.584 358.76 645.456 359.4 645.456H364.872C365.832 645.456 366.408 645.552 366.6 645.744C366.792 645.936 366.856 646.192 366.792 646.512L359.688 693.36C359.432 693.936 359.208 694.32 359.016 694.512C358.824 694.704 358.376 694.8 357.672 694.8H350.856ZM446.376 638.256V693.648C446.376 694.416 445.992 694.8 445.224 694.8H436.68C435.912 694.8 435.528 694.416 435.528 693.648V638.256H420.456C420.136 638.256 419.848 638.16 419.592 637.968C419.4 637.712 419.304 637.392 419.304 637.008V629.328C419.304 629.008 419.4 628.752 419.592 628.56C419.848 628.304 420.136 628.176 420.456 628.176H461.544C461.864 628.176 462.12 628.304 462.312 628.56C462.568 628.752 462.696 629.008 462.696 629.328V637.008C462.696 637.84 462.312 638.256 461.544 638.256H446.376ZM471.432 694.8C471.112 694.8 470.824 694.672 470.568 694.416C470.376 694.224 470.28 693.936 470.28 693.552V686.064C470.28 685.744 470.376 685.488 470.568 685.296C470.824 685.04 471.112 684.912 471.432 684.912H484.488V655.344H473.16C472.84 655.344 472.552 655.248 472.296 655.056C472.104 654.8 472.008 654.48 472.008 654.096V646.608C472.008 646.288 472.104 646.032 472.296 645.84C472.552 645.584 472.84 645.456 473.16 645.456H493.704C494.024 645.456 494.28 645.584 494.472 645.84C494.728 646.032 494.856 646.288 494.856 646.608V684.912H506.664C506.984 684.912 507.24 685.04 507.432 685.296C507.688 685.488 507.816 685.744 507.816 686.064V693.552C507.816 694.384 507.432 694.8 506.664 694.8H471.432ZM488.328 637.872C486.28 637.872 484.552 637.168 483.144 635.76C481.736 634.352 481.032 632.656 481.032 630.672C481.032 628.56 481.736 626.8 483.144 625.392C484.552 623.92 486.28 623.184 488.328 623.184C490.44 623.184 492.2 623.92 493.608 625.392C495.08 626.8 495.816 628.56 495.816 630.672C495.816 632.656 495.08 634.352 493.608 635.76C492.2 637.168 490.44 637.872 488.328 637.872ZM549.576 694.8C549.384 694.8 549.224 694.64 549.096 694.32C548.968 694.064 548.904 693.776 548.904 693.456V663.984C548.904 660.784 548.68 658.32 548.232 656.592C547.784 654.8 547.048 653.904 546.024 653.904C545.384 653.904 544.808 654.256 544.296 654.96C543.784 655.664 543.368 656.816 543.048 658.416C542.792 660.016 542.664 661.712 542.664 663.504C542.664 665.232 542.664 667.216 542.664 669.456V692.592C542.664 693.424 542.472 693.84 542.088 693.84H534.408C534.216 693.84 534.056 693.68 533.928 693.36C533.8 693.104 533.736 692.816 533.736 692.496V663.984C533.672 657.264 532.648 653.904 530.664 653.904C529.512 653.904 528.68 654.992 528.168 657.168C527.72 659.344 527.496 662.32 527.496 666.096V693.552C527.496 694.384 527.272 694.8 526.824 694.8H518.856C518.728 694.8 518.6 694.64 518.472 694.32C518.344 694.064 518.28 693.776 518.28 693.456V658.992C518.28 656.56 518.248 654.224 518.184 651.984C518.184 649.744 518.152 647.984 518.088 646.704C518.024 645.872 518.28 645.456 518.856 645.456H525.96C526.344 645.456 526.536 645.712 526.536 646.224L526.44 650.064C526.824 648.272 527.56 646.864 528.648 645.84C529.736 644.816 530.888 644.304 532.104 644.304C533.832 644.304 535.368 645.072 536.712 646.608C538.12 648.144 538.984 650.416 539.304 653.424C540.136 650.352 541.288 648.08 542.76 646.608C544.232 645.072 545.928 644.304 547.848 644.304C550.792 644.304 553.224 645.936 555.144 649.2C557.128 652.4 558.12 656.912 558.12 662.736V693.552C558.12 693.872 558.056 694.16 557.928 694.416C557.8 694.672 557.64 694.8 557.448 694.8H549.576ZM604.104 673.008C604.104 673.52 603.976 673.904 603.72 674.16C603.528 674.352 603.24 674.448 602.856 674.448H576.552C576.616 677.84 577.48 680.752 579.144 683.184C580.872 685.552 583.624 686.736 587.4 686.736C589.704 686.736 591.72 686.48 593.448 685.968C595.24 685.392 597.064 684.432 598.92 683.088C599.432 682.832 599.72 682.864 599.784 683.184C599.912 683.504 599.976 683.888 599.976 684.336V691.152C599.976 691.728 599.88 692.144 599.688 692.4C599.496 692.72 599.176 693.04 598.728 693.36C597.064 694.256 595.368 694.96 593.64 695.472C591.976 695.984 589.896 696.24 587.4 696.24C580.104 696.24 574.664 693.904 571.08 689.232C567.496 684.56 565.704 678.384 565.704 670.704C565.704 667.44 566.088 664.272 566.856 661.2C567.624 658.064 568.808 655.248 570.408 652.752C572.072 650.256 574.152 648.208 576.648 646.608C579.144 645.008 582.024 644.208 585.288 644.208C588.744 644.208 591.656 644.944 594.024 646.416C596.456 647.888 598.408 649.84 599.88 652.272C601.416 654.64 602.504 657.36 603.144 660.432C603.848 663.504 604.2 666.832 604.2 670.416C604.2 670.864 604.168 671.376 604.104 671.952C604.104 672.464 604.104 672.816 604.104 673.008ZM585.096 653.424C583.56 653.424 582.184 653.872 580.968 654.768C579.816 655.6 578.888 656.752 578.184 658.224C577.544 659.632 577.096 660.944 576.84 662.16C576.648 663.312 576.552 664.24 576.552 664.944H593.736C593.736 664.24 593.608 663.312 593.352 662.16C593.16 660.944 592.712 659.632 592.008 658.224C591.368 656.752 590.44 655.6 589.224 654.768C588.008 653.872 586.632 653.424 585.096 653.424ZM614.472 694.8C614.152 694.8 613.864 694.672 613.608 694.416C613.416 694.224 613.32 693.936 613.32 693.552V686.064C613.32 685.744 613.416 685.488 613.608 685.296C613.864 685.04 614.152 684.912 614.472 684.912H620.52V658.416V655.056H612.648C612.328 655.056 612.04 654.96 611.784 654.768C611.592 654.512 611.496 654.192 611.496 653.808V646.608C611.496 646.288 611.592 646.032 611.784 645.84C612.04 645.584 612.328 645.456 612.648 645.456H628.392C628.648 645.456 628.84 645.552 628.968 645.744C629.16 645.872 629.256 646.064 629.256 646.32V654.48C629.896 653.136 630.568 651.984 631.272 651.024C632.04 650 632.84 649.104 633.672 648.336C634.568 647.504 635.56 646.768 636.648 646.128C637.8 645.424 639.464 644.816 641.64 644.304C644.392 643.856 647.048 643.92 649.608 644.496C652.232 645.072 654.408 646.064 656.136 647.472C656.456 647.792 656.584 648.08 656.52 648.336C656.456 648.592 656.392 648.848 656.328 649.104L653.16 655.632C653.032 656.016 652.808 656.272 652.488 656.4C652.232 656.528 651.88 656.464 651.432 656.208C649.96 655.376 648.328 654.8 646.536 654.48C644.744 654.16 642.984 654.16 641.256 654.48C638.248 655.056 635.88 656.496 634.152 658.8C632.424 661.104 631.368 663.44 630.984 665.808C630.6 668.176 630.408 670.96 630.408 674.16V684.912H640.392C640.712 684.912 640.968 685.04 641.16 685.296C641.416 685.488 641.544 685.744 641.544 686.064V693.552C641.544 694.384 641.16 694.8 640.392 694.8H614.472Z" fill="url(#paint6_linear_212_269)"/>
</g>
<defs>
<filter id="filter0_i_212_269" x="64.2021" y="65.5619" width="753.706" height="733.016" filterUnits="userSpaceOnUse" color-interpolation-filters="sRGB">
<feFlood flood-opacity="0" result="BackgroundImageFix"/>
<feBlend mode="normal" in="SourceGraphic" in2="BackgroundImageFix" result="shape"/>
<feColorMatrix in="SourceAlpha" type="matrix" values="0 0 0 0 0 0 0 0 0 0 0 0 0 0 0 0 0 0 127 0" result="hardAlpha"/>
<feOffset/>
<feGaussianBlur stdDeviation="13.6"/>
<feComposite in2="hardAlpha" operator="arithmetic" k2="-1" k3="1"/>
<feColorMatrix type="matrix" values="0 0 0 0 1 0 0 0 0 1 0 0 0 0 1 0 0 0 0.7 0"/>
<feBlend mode="normal" in2="shape" result="effect1_innerShadow_212_269"/>
</filter>
<filter id="filter1_i_212_269" x="266" y="114" width="350" height="354" filterUnits="userSpaceOnUse" color-interpolation-filters="sRGB">
<feFlood flood-opacity="0" result="BackgroundImageFix"/>
<feBlend mode="normal" in="SourceGraphic" in2="BackgroundImageFix" result="shape"/>
<feColorMatrix in="SourceAlpha" type="matrix" values="0 0 0 0 0 0 0 0 0 0 0 0 0 0 0 0 0 0 127 0" result="hardAlpha"/>
<feOffset dy="4"/>
<feGaussianBlur stdDeviation="2"/>
<feComposite in2="hardAlpha" operator="arithmetic" k2="-1" k3="1"/>
<feColorMatrix type="matrix" values="0 0 0 0 0 0 0 0 0 0 0 0 0 0 0 0 0 0 0.25 0"/>
<feBlend mode="normal" in2="shape" result="effect1_innerShadow_212_269"/>
</filter>
<filter id="filter2_i_212_269" x="230.568" y="623.184" width="426.048" height="77.056" filterUnits="userSpaceOnUse" color-interpolation-filters="sRGB">
<feFlood flood-opacity="0" result="BackgroundImageFix"/>
<feBlend mode="normal" in="SourceGraphic" in2="BackgroundImageFix" result="shape"/>
<feColorMatrix in="SourceAlpha" type="matrix" values="0 0 0 0 0 0 0 0 0 0 0 0 0 0 0 0 0 0 127 0" result="hardAlpha"/>
<feOffset dy="4"/>
<feGaussianBlur stdDeviation="2"/>
<feComposite in2="hardAlpha" operator="arithmetic" k2="-1" k3="1"/>
<feColorMatrix type="matrix" values="0 0 0 0 0 0 0 0 0 0 0 0 0 0 0 0 0 0 0.25 0"/>
<feBlend mode="normal" in2="shape" result="effect1_innerShadow_212_269"/>
</filter>
<radialGradient id="paint0_radial_212_269" cx="0" cy="0" r="1" gradientUnits="userSpaceOnUse" gradientTransform="translate(441.001 753.952) scale(385.874 110.998)">
<stop/>
<stop offset="1" stop-opacity="0"/>
</radialGradient>
<linearGradient id="paint1_linear_212_269" x1="744.053" y1="1445.09" x2="177.681" y2="-15.6778" gradientUnits="userSpaceOnUse">
<stop offset="0.00508433" stop-color="#AEAEAE"/>
<stop offset="1" stop-color="#F5F5F5"/>
</linearGradient>
<linearGradient id="paint2_linear_212_269" x1="335.198" y1="462.888" x2="464.842" y2="952.774" gradientUnits="userSpaceOnUse">
<stop stop-color="white" stop-opacity="0.7"/>
<stop offset="1" stop-color="white" stop-opacity="0"/>
</linearGradient>
<linearGradient id="paint3_linear_212_269" x1="119.415" y1="101.904" x2="144.057" y2="162.279" gradientUnits="userSpaceOnUse">
<stop stop-color="white" stop-opacity="0.7"/>
<stop offset="1" stop-color="white" stop-opacity="0"/>
</linearGradient>
<linearGradient id="paint4_linear_212_269" x1="441" y1="114" x2="441" y2="464" gradientUnits="userSpaceOnUse">
<stop stop-color="#505050"/>
<stop offset="1" stop-color="#737373"/>
</linearGradient>
<linearGradient id="paint5_linear_212_269" x1="441" y1="114" x2="441" y2="464" gradientUnits="userSpaceOnUse">
<stop stop-color="#505050"/>
<stop offset="1" stop-color="#737373"/>
</linearGradient>
<linearGradient id="paint6_linear_212_269" x1="441" y1="525" x2="441" y2="798" gradientUnits="userSpaceOnUse">
<stop stop-color="#505050"/>
<stop offset="1" stop-color="#737373"/>
</linearGradient>
</defs>
</svg>
