<svg id="ticks" viewBox="0 0 940 940" fill="none" xmlns="http://www.w3.org/2000/svg">
    <line x1="693.749" y1="764.136" x2="676.115" y2="739.865" stroke="#505050" stroke-width="5"/>
    <line x1="816.081" y1="611.422" x2="788.675" y2="599.22" stroke="#505050" stroke-width="5"/>
    <line x1="845.668" y1="418.002" x2="815.832" y2="421.138" stroke="#505050" stroke-width="5"/>
    <line x1="774.136" y1="236.251" x2="749.865" y2="253.885" stroke="#505050" stroke-width="5"/>
    <line x1="621.422" y1="113.919" x2="609.22" y2="141.325" stroke="#505050" stroke-width="5"/>
    <line x1="428.002" y1="84.3321" x2="431.138" y2="114.168" stroke="#505050" stroke-width="5"/>
    <line x1="246.252" y1="155.864" x2="263.885" y2="180.135" stroke="#505050" stroke-width="5"/>
    <line x1="123.919" y1="308.578" x2="151.325" y2="320.78" stroke="#505050" stroke-width="5"/>
    <line x1="94.3324" y1="501.998" x2="124.168" y2="498.862" stroke="#505050" stroke-width="5"/>
    <line x1="165.865" y1="683.749" x2="190.135" y2="666.115" stroke="#505050" stroke-width="5"/>
    <line x1="318.578" y1="806.081" x2="330.78" y2="778.675" stroke="#505050" stroke-width="5"/>
    <line x1="511.998" y1="835.668" x2="508.863" y2="805.832" stroke="#505050" stroke-width="5"/>
    <line x1="724.314" y1="739.082" x2="704.24" y2="716.787" stroke="#505050" stroke-width="5"/>
    <line x1="830.013" y1="574.417" x2="801.482" y2="565.147" stroke="#505050" stroke-width="5"/>
    <line x1="839.22" y1="378.964" x2="809.876" y2="385.201" stroke="#505050" stroke-width="5"/>
    <line x1="749.082" y1="205.686" x2="726.787" y2="225.76" stroke="#505050" stroke-width="5"/>
    <line x1="584.417" y1="99.9865" x2="575.147" y2="128.518" stroke="#505050" stroke-width="5"/>
    <line x1="388.964" y1="90.78" x2="395.201" y2="120.124" stroke="#505050" stroke-width="5"/>
    <line x1="215.687" y1="180.919" x2="235.761" y2="203.213" stroke="#505050" stroke-width="5"/>
    <line x1="109.987" y1="345.583" x2="138.519" y2="354.853" stroke="#505050" stroke-width="5"/>
    <line x1="100.78" y1="541.036" x2="130.125" y2="534.799" stroke="#505050" stroke-width="5"/>
    <line x1="190.919" y1="714.314" x2="213.213" y2="694.24" stroke="#505050" stroke-width="5"/>
    <line x1="355.583" y1="820.013" x2="364.854" y2="791.482" stroke="#505050" stroke-width="5"/>
    <line x1="551.036" y1="829.22" x2="544.799" y2="799.876" stroke="#505050" stroke-width="5"/>
    <line x1="752.093" y1="710.97" x2="729.798" y2="690.896" stroke="#505050" stroke-width="5"/>
    <line x1="840.001" y1="536.159" x2="810.657" y2="529.922" stroke="#505050" stroke-width="5"/>
    <line x1="828.727" y1="340.814" x2="800.195" y2="350.084" stroke="#505050" stroke-width="5"/>
    <line x1="720.97" y1="177.907" x2="700.896" y2="200.202" stroke="#505050" stroke-width="5"/>
    <line x1="546.159" y1="89.9989" x2="539.921" y2="119.343" stroke="#505050" stroke-width="5"/>
    <line x1="350.814" y1="101.273" x2="360.085" y2="129.805" stroke="#505050" stroke-width="5"/>
    <line x1="187.908" y1="209.03" x2="210.202" y2="229.104" stroke="#505050" stroke-width="5"/>
    <line x1="99.9993" y1="383.841" x2="129.344" y2="390.078" stroke="#505050" stroke-width="5"/>
    <line x1="111.274" y1="579.186" x2="139.805" y2="569.915" stroke="#505050" stroke-width="5"/>
    <line x1="219.031" y1="742.093" x2="239.105" y2="719.798" stroke="#505050" stroke-width="5"/>
    <line x1="393.841" y1="830.001" x2="400.079" y2="800.657" stroke="#505050" stroke-width="5"/>
    <line x1="589.186" y1="818.727" x2="579.916" y2="790.195" stroke="#505050" stroke-width="5"/>
    <line x1="776.781" y1="680.108" x2="752.51" y2="662.475" stroke="#505050" stroke-width="5"/>
    <line x1="845.935" y1="497.066" x2="816.099" y2="493.93" stroke="#505050" stroke-width="5"/>
    <line x1="814.303" y1="303.97" x2="786.897" y2="316.172" stroke="#505050" stroke-width="5"/>
    <line x1="690.108" y1="153.219" x2="672.475" y2="177.49" stroke="#505050" stroke-width="5"/>
    <line x1="507.066" y1="84.065" x2="503.93" y2="113.901" stroke="#505050" stroke-width="5"/>
    <line x1="313.97" y1="115.697" x2="326.172" y2="143.103" stroke="#505050" stroke-width="5"/>
    <line x1="163.22" y1="239.892" x2="187.49" y2="257.525" stroke="#505050" stroke-width="5"/>
    <line x1="94.0654" y1="422.934" x2="123.901" y2="426.07" stroke="#505050" stroke-width="5"/>
    <line x1="125.697" y1="616.03" x2="153.103" y2="603.828" stroke="#505050" stroke-width="5"/>
    <line x1="249.892" y1="766.781" x2="267.526" y2="742.51" stroke="#505050" stroke-width="5"/>
    <line x1="432.934" y1="835.935" x2="436.07" y2="806.099" stroke="#505050" stroke-width="5"/>
    <line x1="626.031" y1="804.303" x2="613.829" y2="776.897" stroke="#505050" stroke-width="5"/>
    <line x1="658.567" y1="787.108" x2="618.567" y2="717.826" stroke="#505050" stroke-width="10"/>
    <line x1="797.108" y1="648.933" x2="727.826" y2="608.933" stroke="#505050" stroke-width="10"/>
    <line x1="848" y1="460" x2="768" y2="460" stroke="#505050" stroke-width="10"/>
    <line x1="797.108" y1="271.433" x2="727.826" y2="311.433" stroke="#505050" stroke-width="10"/>
    <line x1="658.933" y1="132.892" x2="618.933" y2="202.174" stroke="#505050" stroke-width="10"/>
    <line x1="470" y1="82" x2="470" y2="162" stroke="#505050" stroke-width="10"/>
    <line x1="281.433" y1="132.892" x2="321.433" y2="202.174" stroke="#505050" stroke-width="10"/>
    <line x1="142.893" y1="271.067" x2="212.175" y2="311.067" stroke="#505050" stroke-width="10"/>
    <line x1="92.0004" y1="460" x2="172" y2="460" stroke="#505050" stroke-width="10"/>
    <line x1="142.893" y1="648.567" x2="212.175" y2="608.567" stroke="#505050" stroke-width="10"/>
    <line x1="281.067" y1="787.108" x2="321.067" y2="717.826" stroke="#505050" stroke-width="10"/>
    <line x1="470" y1="838" x2="470" y2="758" stroke="#505050" stroke-width="10"/>
</svg>